<svg version="1.1" id="Layer_1" xmlns="http://www.w3.org/2000/svg" xmlns:xlink="http://www.w3.org/1999/xlink" x="0px" y="0px"
	 width="100%" viewBox="0 0 660 330" enable-background="new 0 0 660 330" xml:space="preserve">
<path fill="none" opacity="1.000000" stroke="#000000" stroke-linecap="round" stroke-linejoin="round" stroke-width="9.000000"
	d="
M63.500000,72.500000 
	C47.342308,73.537323 31.166168,72.914650 14.999901,72.942413 
	C5.085596,72.959442 4.002789,77.027077 2.553837,83.512032 
	C2.049356,85.769882 2.023875,88.166519 2.021545,90.500023 
	C1.989587,122.499992 2.006742,154.500000 1.989089,186.500000 
	C1.987409,189.546356 2.231692,192.537399 2.984126,195.504028 
	C4.577747,201.787140 8.056384,204.704239 14.500232,204.994858 
	C15.331873,205.032379 16.166666,205.000000 17.000000,205.000000 
	C143.166672,205.000000 269.333344,205.000000 395.500000,205.000000 
"/>
<path fill="none" opacity="1.000000" stroke="#000000" stroke-linecap="round" stroke-linejoin="round" stroke-width="9.000000"
	d="
M656.500000,78.500000 
	C655.833313,78.306061 655.375549,79.565086 654.465271,78.530586 
	C649.523560,72.914932 642.825134,72.488632 636.000000,72.495956 
	C623.000000,72.509911 609.988403,72.146957 597.002441,72.574127 
	C570.666931,73.440414 544.332764,72.932915 517.999939,72.959351 
	C417.666718,73.060089 317.333344,73.006470 217.000000,72.978806 
	C212.499954,72.977570 208.000000,72.666664 203.500000,72.500000 
"/>
<path fill="none" opacity="1.000000" stroke="#000000" stroke-linecap="round" stroke-linejoin="round" stroke-width="8.000000"
	d="
M157.000000,103.500000 
	C158.048813,119.324051 157.504776,135.169159 157.400482,150.999344 
	C157.343079,159.714508 161.977585,165.585098 168.627914,169.269089 
	C175.354553,172.995331 183.243637,172.589493 189.926361,168.383011 
	C196.241089,164.408218 199.723587,158.493454 199.580048,150.498566 
	C199.304871,135.170181 199.500000,119.833336 199.500000,104.500000 
"/>
<path fill="none" opacity="1.000000" stroke="#000000" stroke-linecap="round" stroke-linejoin="round" stroke-width="8.000000"
	d="
M532.000000,114.000000 
	C515.050903,99.707733 487.628479,105.379028 482.147064,131.031418 
	C477.549652,152.546738 490.210510,171.588089 512.998901,171.381058 
	C520.113281,171.316422 526.838562,168.949905 532.000000,163.500000 
"/>
<path fill="none" opacity="1.000000" stroke="#000000" stroke-linecap="round" stroke-linejoin="round" stroke-width="8.000000"
	d="
M351.500000,143.000000 
	C360.685089,143.845856 369.918365,144.284164 378.974518,142.378906 
	C383.558960,141.414413 386.516602,137.646851 388.464783,133.483521 
	C392.896301,124.013184 388.043427,111.299438 379.027618,107.926224 
	C377.608490,107.395271 376.323059,107.550972 374.999603,107.536339 
	C368.000458,107.458931 360.998230,107.592628 354.000763,107.459389 
	C350.696594,107.396469 349.218872,108.698746 349.496582,112.000290 
	C350.364166,122.315498 347.673401,132.803436 351.000000,143.000000 
	C347.789429,152.018814 350.307800,161.350128 349.500000,170.500000 
"/>
<path fill="none" opacity="1.000000" stroke="#000000" stroke-linecap="round" stroke-linejoin="round" stroke-width="8.000000"
	d="
M410.500000,104.500000 
	C410.500000,124.500000 410.557098,144.500275 410.462433,164.499817 
	C410.436768,169.926971 411.071686,170.618530 416.500549,170.535461 
	C425.165161,170.402893 433.833344,170.500000 442.500000,170.500000 
"/>
<path fill="none" opacity="1.000000" stroke="#000000" stroke-linecap="round" stroke-linejoin="round" stroke-width="8.000000"
	d="
M226.000000,103.500000 
	C224.908630,123.992485 225.792313,144.501114 225.486115,164.999786 
	C225.438583,168.182037 226.523254,170.521271 229.999115,170.453979 
	C238.665771,170.286194 247.351868,171.130661 256.000000,170.000000 
"/>
<path fill="none" opacity="1.000000" stroke="#000000" stroke-linecap="round" stroke-linejoin="round" stroke-width="15.000000"
	d="
M110.500000,59.000000 
	C111.833328,60.500000 112.938316,62.331116 114.542953,63.437714 
	C119.292656,66.713219 120.918953,70.896156 119.535698,76.508797 
	C118.021858,82.651352 113.454277,85.532196 107.975151,86.329163 
	C102.589104,87.112587 96.986923,86.726593 91.505173,86.410301 
	C88.484818,86.236023 85.803841,84.762352 86.020699,81.001190 
	C86.414566,74.170166 86.047844,67.344917 86.645119,60.469173 
	C87.104240,55.183903 86.121117,49.515709 85.980034,44.000511 
	C85.790825,36.604294 85.701202,34.433704 96.001770,34.047142 
	C99.490601,33.916218 103.050079,34.016602 106.490425,34.560574 
	C116.051071,36.072266 119.329620,45.399017 113.654343,53.606724 
	C110.295540,58.464310 106.460480,59.965290 100.995323,59.563660 
	C96.685265,59.246914 92.333336,59.500000 88.000000,59.500000 
"/>
<path fill="none" opacity="1.000000" stroke="#000000" stroke-linecap="round" stroke-linejoin="round" stroke-width="14.000000"
	d="
M182.000000,86.000000 
	C179.575043,80.382812 177.886505,74.556648 174.268585,69.314636 
	C172.073792,66.134636 172.964935,61.044342 171.506241,56.997749 
	C169.647141,51.840374 168.352646,46.398746 165.862030,41.571178 
	C163.061707,36.143284 159.725952,33.205929 155.639099,41.072269 
	C151.355759,49.316833 148.358765,58.191040 146.967102,67.495079 
	C146.868607,68.153549 147.210999,68.726372 146.578583,69.559639 
	C142.861191,74.457626 141.106552,80.321159 139.000000,86.000000 
"/>
<path fill="none" opacity="1.000000" stroke="#000000" stroke-linecap="round" stroke-linejoin="round" stroke-width="8.000000"
	d="
M323.000000,103.500000 
	C321.891418,125.659584 322.787750,147.834229 322.521271,170.000259 
	C322.517303,170.331528 322.833344,170.666672 323.000000,171.000000 
"/>
<path fill="none" opacity="1.000000" stroke="#000000" stroke-linecap="round" stroke-linejoin="round" stroke-width="9.000000"
	d="
M459.000000,103.500000 
	C459.000000,126.000000 459.000000,148.500000 459.000000,171.000000 
"/>
<path fill="none" opacity="1.000000" stroke="#000000" stroke-linecap="round" stroke-linejoin="round" stroke-width="8.000000"
	d="
M67.500000,113.000000 
	C63.448544,115.464523 64.155571,119.964508 63.659004,123.522194 
	C61.456242,139.304016 59.828449,155.166107 57.996338,170.999573 
	C56.833332,171.000000 55.666668,171.000000 54.500000,171.000000 
"/>
<path fill="none" opacity="1.000000" stroke="#000000" stroke-linecap="round" stroke-linejoin="round" stroke-width="8.000000"
	d="
M281.500000,109.000000 
	C281.500000,129.500000 281.500000,150.000000 281.500000,170.500000 
"/>
<path fill="none" opacity="1.000000" stroke="#000000" stroke-linecap="round" stroke-linejoin="round" stroke-width="4.000000"
	d="
M516.000000,229.500000 
	C511.440918,229.631607 508.016174,231.382233 506.490356,235.996811 
	C504.956177,240.636703 505.697449,245.570892 509.055023,247.921402 
	C512.441101,250.291809 516.253723,251.624695 520.515442,249.531418 
	C524.924805,247.365616 527.802612,242.847565 526.971130,238.505524 
	C526.164368,234.292313 522.766235,229.527496 516.500000,229.500000 
"/>
<path fill="none" opacity="1.000000" stroke="#000000" stroke-linecap="round" stroke-linejoin="round" stroke-width="4.000000"
	d="
M272.500000,229.500000 
	C267.578949,229.777786 264.409637,232.244568 262.991241,236.997391 
	C261.608368,241.631027 263.204895,245.567917 266.583679,248.400177 
	C269.692780,251.006348 273.586761,251.398422 277.509949,249.520767 
	C281.730286,247.500946 284.504486,243.146027 284.000000,239.000000 
	C283.344757,233.614807 279.952240,230.545380 273.500000,229.500000 
"/>
<path fill="none" opacity="1.000000" stroke="#000000" stroke-linecap="round" stroke-linejoin="round" stroke-width="8.000000"
	d="
M125.000000,113.000000 
	C128.095169,115.857170 127.900909,119.951820 128.378128,123.516319 
	C130.492859,139.311966 132.166672,155.166672 134.000000,171.000000 
"/>
<path fill="none" opacity="1.000000" stroke="#000000" stroke-linecap="round" stroke-linejoin="round" stroke-width="7.000000"
	d="
M125.500000,104.500000 
	C125.567612,108.533691 125.253708,112.139877 121.589432,115.110321 
	C117.613708,118.333252 116.482948,123.685471 114.141098,128.075272 
	C109.655785,136.483032 106.133667,145.398911 101.931007,153.966156 
	C100.356888,157.175064 98.000000,160.000000 96.000000,163.000000 
"/>
<path fill="none" opacity="1.000000" stroke="#000000" stroke-linecap="round" stroke-linejoin="round" stroke-width="7.000000"
	d="
M66.500000,104.500000 
	C66.543015,108.349457 66.179123,111.965118 70.365829,114.705017 
	C72.808502,116.303574 73.684372,120.049995 75.056381,122.973541 
	C80.249542,134.039322 85.599007,145.033737 91.054649,155.972748 
	C92.204308,158.277893 93.612328,160.600830 96.000000,162.000000 
"/>
<path fill="none" opacity="1.000000" stroke="#000000" stroke-linecap="round" stroke-linejoin="round" stroke-width="4.000000"
	d="
M560.000000,240.000000 
	C566.171143,240.000000 572.342346,240.000000 578.493408,240.000000 
	C578.589050,232.738190 575.119385,229.268524 568.500000,229.499985 
	C562.474854,229.710678 559.548462,233.536926 559.367859,239.746155 
	C559.220398,244.818832 560.811768,248.327148 565.520691,249.939606 
	C570.147339,251.523895 574.316895,250.467529 577.500000,246.500000 
"/>
<path fill="none" opacity="1.000000" stroke="#000000" stroke-linecap="round" stroke-linejoin="round" stroke-width="4.000000"
	d="
M616.000000,240.000000 
	C622.358765,239.999985 628.717529,239.999985 635.424622,239.999985 
	C632.075134,230.140381 625.103394,226.763443 619.000000,231.000000 
	C614.826111,233.897217 613.593628,241.291870 616.500000,245.999985 
	C619.382019,250.668594 624.570374,251.639755 630.060608,249.132736 
	C631.559021,248.448502 632.268005,247.241882 633.500000,246.500000 
"/>
<path fill="none" opacity="1.000000" stroke="#000000" stroke-linecap="round" stroke-linejoin="round" stroke-width="7.000000"
	d="
M570.500000,110.000000 
	C575.471680,113.554878 575.954956,119.542702 577.829590,124.563629 
	C581.141785,133.435211 584.617432,142.274033 587.519348,151.333649 
	C589.614685,157.874985 592.543335,164.710770 596.000000,171.000000 
"/>
<path fill="none" opacity="1.000000" stroke="#000000" stroke-linecap="round" stroke-linejoin="round" stroke-width="7.000000"
	d="
M569.750000,105.500000 
	C570.687012,107.943436 569.659851,109.729019 568.028564,111.525925 
	C564.570801,115.334679 563.921265,120.469681 562.036804,125.015251 
	C559.228271,131.789780 556.051270,138.500885 554.154602,145.541641 
	C551.746033,154.482773 546.933228,162.343094 544.000000,171.000000 
"/>
<path fill="none" opacity="1.000000" stroke="#000000" stroke-linecap="round" stroke-linejoin="round" stroke-width="12.000000"
	d="
M493.500000,200.500000 
	C481.342133,203.320724 474.961700,213.889389 465.989136,220.986267 
	C460.325928,225.465576 456.137939,231.674469 449.500000,235.000000 
"/>
<path fill="none" opacity="1.000000" stroke="#000000" stroke-linecap="round" stroke-linejoin="round" stroke-width="5.000000"
	d="
M252.500000,229.500000 
	C253.607376,237.814514 253.022263,246.174255 252.886185,254.498138 
	C252.800430,259.742920 249.999619,261.432617 243.500000,261.500000 
"/>
<path fill="none" opacity="1.000000" stroke="#000000" stroke-linecap="round" stroke-linejoin="round" stroke-width="11.000000"
	d="
M426.000000,202.000000 
	C433.722687,204.806046 434.341370,213.026398 438.306854,218.636536 
	C441.769196,223.534943 443.985382,229.355927 448.046173,233.959259 
	C448.182312,234.113586 448.435974,234.051132 448.533813,234.492508 
	C450.913239,245.226913 458.996124,252.618271 464.621246,261.422546 
	C468.878662,268.086121 472.549683,275.414673 479.500000,280.000000 
"/>
<path fill="none" opacity="1.000000" stroke="#000000" stroke-linecap="round" stroke-linejoin="round" stroke-width="5.000000"
	d="
M495.500000,229.500000 
	C496.607361,237.814514 495.996033,246.172729 495.891785,254.498642 
	C495.829834,259.445038 494.113464,260.590515 488.500000,261.500000 
"/>
<path fill="none" opacity="1.000000" stroke="#000000" stroke-linecap="round" stroke-linejoin="round" stroke-width="9.000000"
	d="
M555.500000,205.500000 
	C548.666687,205.333328 541.832703,205.187241 535.000183,204.992706 
	C530.499084,204.864563 526.000000,204.666656 521.500000,204.500000 
"/>
<path fill="none" opacity="1.000000" stroke="#000000" stroke-linecap="round" stroke-linejoin="round" stroke-width="5.000000"
	d="
M362.500000,250.500000 
	C361.411499,246.370209 361.847076,242.133087 362.126312,238.008545 
	C362.383514,234.209579 360.771881,231.608719 357.930573,230.133728 
	C355.296448,228.766281 352.148773,228.781403 349.477051,230.972000 
	C348.505554,231.768555 347.440216,232.638260 346.000000,232.500000 
"/>
<path fill="none" opacity="1.000000" stroke="#000000" stroke-linecap="round" stroke-linejoin="round" stroke-width="8.000000"
	d="
M554.000000,151.500000 
	C559.563293,153.591080 565.339111,152.339066 571.001099,152.401810 
	C576.157898,152.458984 581.438477,153.463364 586.500000,151.500000 
"/>
<path fill="none" opacity="1.000000" stroke="#000000" stroke-linecap="round" stroke-linejoin="round" stroke-width="4.000000"
	d="
M390.000000,247.000000 
	C384.638123,253.022583 374.933350,250.858307 372.975403,245.008240 
	C371.570496,240.810516 371.329712,236.754684 374.022705,233.016357 
	C376.626923,229.401230 380.654755,228.803192 384.472198,229.628586 
	C389.121735,230.633911 391.286102,234.271652 391.894867,239.459808 
	C385.399261,240.552811 379.170746,239.741974 373.000000,240.000000 
"/>
<path fill="none" opacity="1.000000" stroke="#000000" stroke-linecap="round" stroke-linejoin="round" stroke-width="4.000000"
	d="
M654.500000,232.500000 
	C652.784851,228.962692 649.429993,228.945312 646.549622,229.691498 
	C644.855530,230.130356 642.993408,232.229233 643.077026,234.497162 
	C643.174561,237.141357 645.201599,238.633057 647.517029,239.451889 
	C648.754517,239.889526 650.397339,239.447601 651.452881,240.078796 
	C653.782654,241.472015 657.082581,242.490768 655.515869,246.506180 
	C654.343933,249.509583 649.707458,251.713028 646.516541,250.457977 
	C644.703857,249.745041 643.445435,248.221207 642.500000,246.500000 
"/>
<path fill="none" opacity="1.000000" stroke="#000000" stroke-linecap="round" stroke-linejoin="round" stroke-width="8.000000"
	d="
M307.500000,107.000000 
	C299.058380,108.492569 290.380188,108.012024 282.003082,107.964005 
	C273.960999,107.917908 265.553223,108.921402 257.500000,106.750000 
"/>
<path fill="none" opacity="1.000000" stroke="#000000" stroke-linecap="round" stroke-linejoin="round" stroke-width="4.000000"
	d="
M411.500000,232.500000 
	C410.130402,228.673981 406.759308,229.192474 404.024658,229.647964 
	C401.855652,230.009247 400.257111,232.152679 400.067352,234.505432 
	C399.858978,237.089233 401.810974,238.274139 404.002563,238.992188 
	C405.154755,239.369675 406.341309,239.641327 407.498596,240.004517 
	C411.881744,241.380051 413.460419,243.441757 412.500061,246.500015 
	C411.560242,249.492706 406.668518,251.841095 403.540924,250.410553 
	C401.899750,249.659897 399.759766,248.906921 399.500000,246.500000 
"/>
<path fill="none" opacity="1.000000" stroke="#000000" stroke-linecap="round" stroke-linejoin="round" stroke-width="5.000000"
	d="
M589.500000,232.500000 
	C599.734741,226.044662 606.485046,230.305161 605.091064,242.010849 
	C604.763245,244.763809 604.385681,247.722412 605.500000,250.500000 
"/>
<path fill="none" opacity="1.000000" stroke="#000000" stroke-linecap="round" stroke-linejoin="round" stroke-width="4.000000"
	d="
M317.000000,240.000000 
	C323.172729,239.778549 329.402008,240.603775 335.520508,239.193939 
	C334.850952,232.863708 332.228210,229.818695 327.501129,229.483963 
	C321.413971,229.052917 317.628479,231.647278 316.084442,237.024246 
	C314.813324,241.450867 317.297791,247.531601 320.500000,249.500015 
	C323.925354,251.605621 329.910187,250.497299 334.000000,247.000000 
"/>
<path fill="none" opacity="1.000000" stroke="#000000" stroke-linecap="round" stroke-linejoin="round" stroke-width="13.000000"
	d="
M173.500000,69.000000 
	C164.887207,71.968269 156.213882,71.788826 147.500000,69.500000 
"/>
<path fill="none" opacity="1.000000" stroke="#000000" stroke-linecap="round" stroke-linejoin="round" stroke-width="4.000000"
	d="
M533.500000,229.500000 
	C535.833313,235.000000 538.170410,240.498413 540.496765,246.001358 
	C540.961914,247.101562 541.076599,248.497726 542.750000,248.500000 
"/>
<path fill="none" opacity="1.000000" stroke="#000000" stroke-linecap="round" stroke-linejoin="round" stroke-width="14.000000"
	d="
M341.000000,297.500000 
	C337.360718,297.109497 334.046631,298.111908 331.008972,300.014343 
	C326.430573,302.881653 326.666046,307.913971 331.507812,310.485291 
	C335.571381,312.643402 340.100098,313.399719 344.506012,314.475342 
	C348.238251,315.386505 350.403870,311.953491 353.446686,310.852600 
	C356.101868,309.891968 358.272247,306.073425 360.929932,306.768127 
	C364.383423,307.670776 367.513977,310.270294 370.442413,312.573242 
	C372.756104,314.392731 375.268677,316.438812 375.000000,320.000000 
"/>
<path fill="none" opacity="1.000000" stroke="#000000" stroke-linecap="round" stroke-linejoin="round" stroke-width="4.000000"
	d="
M309.500000,229.500000 
	C306.371124,234.485291 304.859467,240.181778 302.617889,245.549240 
	C301.987030,247.059845 301.030365,247.818237 300.000000,248.750000 
"/>
<path fill="none" opacity="1.000000" stroke="#000000" stroke-linecap="round" stroke-linejoin="round" stroke-width="10.000000"
	d="
M448.500000,239.000000 
	C443.053253,243.003616 438.368683,247.848816 433.460022,252.457413 
	C430.132721,255.581329 429.985901,260.566772 426.500000,263.500000 
"/>
<path fill="none" opacity="1.000000" stroke="#000000" stroke-linecap="round" stroke-linejoin="round" stroke-width="4.000000"
	d="
M290.500000,229.500000 
	C293.719360,236.271957 295.883270,243.520157 299.750000,250.000000 
"/>
<path fill="none" opacity="1.000000" stroke="#000000" stroke-linecap="round" stroke-linejoin="round" stroke-width="4.000000"
	d="
M551.500000,230.500000 
	C549.666687,235.166672 547.481689,239.735901 546.150208,244.541611 
	C545.496521,246.900848 543.131348,247.751862 542.750000,250.000000 
"/>
<path fill="none" opacity="1.000000" stroke="#000000" stroke-linecap="round" stroke-linejoin="round" stroke-width="5.000000"
	d="
M588.499939,230.500000 
	C588.333313,235.333328 588.104919,240.165741 588.031555,245.000473 
	C588.003723,246.830872 588.333313,248.666672 588.499939,250.500000 
"/>
<path fill="none" opacity="1.000000" stroke="#000000" stroke-linecap="round" stroke-linejoin="round" stroke-width="5.000000"
	d="
M345.500000,229.500000 
	C346.710114,233.500000 344.813507,237.417908 345.201721,241.528168 
	C345.471252,244.381744 345.452637,247.500000 345.500000,250.500000 
"/>
<path fill="none" opacity="1.000000" stroke="#000000" stroke-linecap="round" stroke-linejoin="round" stroke-width="2.000000"
	d="
M430.000000,256.000000 
	C424.158203,255.940521 420.984070,259.176392 419.500000,264.500000 
"/>
<path fill="none" opacity="1.000000" stroke="#000000" stroke-linecap="round" stroke-linejoin="round" stroke-width="4.000000"
	d="
M521.500000,218.500000 
	C520.588562,218.638092 519.528137,218.077347 518.958679,219.483261 
	C518.316772,221.067932 517.430481,222.597168 515.500000,223.000000 
"/>
<path fill="none" opacity="1.000000" stroke="#000000" stroke-linecap="round" stroke-linejoin="round" stroke-width="4.000000"
	d="
M278.500000,218.500000 
	C277.588562,218.638092 276.528137,218.077332 275.958679,219.483261 
	C275.316833,221.067932 274.430511,222.597168 272.500000,223.000000 
"/>
<path fill="none" opacity="1.000000" stroke="#000000" stroke-linecap="round" stroke-linejoin="round" stroke-width="2.000000"
	d="
M425.500000,263.500000 
	C427.016083,265.530701 425.352722,266.198792 424.000000,267.000000 
"/>
<path fill="none" opacity="1.000000" stroke="#000000" stroke-linecap="round" stroke-linejoin="round" stroke-width="2.000000"
	d="
M422.500000,265.500000 
	C424.288635,267.591064 424.356537,269.337982 421.500000,270.500000 
"/>
</svg>